{"accessors" : [{"bufferView" : 0, "byteOffset" : 0, "componentType" : 5123, "count" : 162, "type" : "SCALAR", "max" : [160], "min" : [0]}, {"bufferView" : 1, "byteOffset" : 0, "componentType" : 5126, "count" : 161, "type" : "VEC3", "max" : [104.30369567871094, -40.55318832397461, -124.04109191894531], "min" : [74.30369567871094, -70.55318450927734, -154.0410919189453], "name" : "POSITION"}, {"bufferView" : 1, "byteOffset" : 12, "componentType" : 5126, "count" : 161, "type" : "VEC2", "max" : [1, -0], "min" : [0, -1], "name" : "TEXCOORD_0"}, {"bufferView" : 1, "byteOffset" : 20, "componentType" : 5126, "count" : 161, "type" : "VEC3", "max" : [1.0000044107437134, 0, 0], "min" : [-1.0000044107437134, 0, 0], "name" : "NORMAL"}, {"bufferView" : 0, "byteOffset" : 324, "componentType" : 5123, "count" : 294, "type" : "SCALAR", "max" : [256], "min" : [0]}, {"bufferView" : 2, "byteOffset" : 0, "componentType" : 5126, "count" : 257, "type" : "VEC3", "max" : [104.30369567871094, -40.55318832397461, -124.04109191894531], "min" : [74.30369567871094, -70.55318450927734, -154.0410919189453], "name" : "POSITION"}, {"bufferView" : 2, "byteOffset" : 12, "componentType" : 5126, "count" : 257, "type" : "VEC2", "max" : [1, -0], "min" : [0, -1], "name" : "TEXCOORD_0"}, {"bufferView" : 2, "byteOffset" : 20, "componentType" : 5126, "count" : 257, "type" : "VEC3", "max" : [0, 1.0000044107437134, 1.0000044107437134], "min" : [-1.0000044107437134, -1.0000044107437134, -1.0000044107437134], "name" : "NORMAL"}, {"bufferView" : 0, "byteOffset" : 912, "componentType" : 5123, "count" : 162, "type" : "SCALAR", "max" : [160], "min" : [0]}, {"bufferView" : 3, "byteOffset" : 0, "componentType" : 5126, "count" : 161, "type" : "VEC3", "max" : [-75.29733276367188, -40.55318832397461, -124.04109191894531], "min" : [-105.29733276367188, -70.55318450927734, -154.0410919189453], "name" : "POSITION"}, {"bufferView" : 3, "byteOffset" : 12, "componentType" : 5126, "count" : 161, "type" : "VEC2", "max" : [1, -0], "min" : [0, -1], "name" : "TEXCOORD_0"}, {"bufferView" : 3, "byteOffset" : 20, "componentType" : 5126, "count" : 161, "type" : "VEC3", "max" : [1.0000044107437134, 0, 0], "min" : [-1.0000044107437134, 0, 0], "name" : "NORMAL"}, {"bufferView" : 0, "byteOffset" : 1236, "componentType" : 5123, "count" : 294, "type" : "SCALAR", "max" : [256], "min" : [0]}, {"bufferView" : 4, "byteOffset" : 0, "componentType" : 5126, "count" : 257, "type" : "VEC3", "max" : [-75.29733276367188, -40.55318832397461, -124.04109191894531], "min" : [-105.29733276367188, -70.55318450927734, -154.0410919189453], "name" : "POSITION"}, {"bufferView" : 4, "byteOffset" : 12, "componentType" : 5126, "count" : 257, "type" : "VEC2", "max" : [1, -0], "min" : [0, -1], "name" : "TEXCOORD_0"}, {"bufferView" : 4, "byteOffset" : 20, "componentType" : 5126, "count" : 257, "type" : "VEC3", "max" : [0, 1.0000044107437134, 1.0000044107437134], "min" : [-1.0000044107437134, -1.0000044107437134, -1.0000044107437134], "name" : "NORMAL"}, {"bufferView" : 0, "byteOffset" : 1824, "componentType" : 5123, "count" : 162, "type" : "SCALAR", "max" : [160], "min" : [0]}, {"bufferView" : 5, "byteOffset" : 0, "componentType" : 5126, "count" : 161, "type" : "VEC3", "max" : [-75.29733276367188, -40.55318832397461, 141.84417724609375], "min" : [-105.29733276367188, -70.55318450927734, 111.84417724609375], "name" : "POSITION"}, {"bufferView" : 5, "byteOffset" : 12, "componentType" : 5126, "count" : 161, "type" : "VEC2", "max" : [1, -0], "min" : [0, -1], "name" : "TEXCOORD_0"}, {"bufferView" : 5, "byteOffset" : 20, "componentType" : 5126, "count" : 161, "type" : "VEC3", "max" : [1.0000044107437134, 0, 0], "min" : [-1.0000044107437134, 0, 0], "name" : "NORMAL"}, {"bufferView" : 0, "byteOffset" : 2148, "componentType" : 5123, "count" : 294, "type" : "SCALAR", "max" : [256], "min" : [0]}, {"bufferView" : 6, "byteOffset" : 0, "componentType" : 5126, "count" : 257, "type" : "VEC3", "max" : [-75.29733276367188, -40.55318832397461, 141.84417724609375], "min" : [-105.29733276367188, -70.55318450927734, 111.84417724609375], "name" : "POSITION"}, {"bufferView" : 6, "byteOffset" : 12, "componentType" : 5126, "count" : 257, "type" : "VEC2", "max" : [1, -0], "min" : [0, -1], "name" : "TEXCOORD_0"}, {"bufferView" : 6, "byteOffset" : 20, "componentType" : 5126, "count" : 257, "type" : "VEC3", "max" : [0, 1.0000044107437134, 1.0000044107437134], "min" : [-1.0000044107437134, -1.0000044107437134, -1.0000044107437134], "name" : "NORMAL"}, {"bufferView" : 0, "byteOffset" : 2736, "componentType" : 5123, "count" : 162, "type" : "SCALAR", "max" : [160], "min" : [0]}, {"bufferView" : 7, "byteOffset" : 0, "componentType" : 5126, "count" : 161, "type" : "VEC3", "max" : [104.20877075195312, -40.55318832397461, 141.17430114746094], "min" : [74.20877075195312, -70.55318450927734, 111.17430877685547], "name" : "POSITION"}, {"bufferView" : 7, "byteOffset" : 12, "componentType" : 5126, "count" : 161, "type" : "VEC2", "max" : [1, -0], "min" : [0, -1], "name" : "TEXCOORD_0"}, {"bufferView" : 7, "byteOffset" : 20, "componentType" : 5126, "count" : 161, "type" : "VEC3", "max" : [1.0000044107437134, 0, 0], "min" : [-1.0000044107437134, 0, 0], "name" : "NORMAL"}, {"bufferView" : 0, "byteOffset" : 3060, "componentType" : 5123, "count" : 294, "type" : "SCALAR", "max" : [256], "min" : [0]}, {"bufferView" : 8, "byteOffset" : 0, "componentType" : 5126, "count" : 257, "type" : "VEC3", "max" : [104.20877075195312, -40.55318832397461, 141.17430114746094], "min" : [74.20877075195312, -70.55318450927734, 111.17430877685547], "name" : "POSITION"}, {"bufferView" : 8, "byteOffset" : 12, "componentType" : 5126, "count" : 257, "type" : "VEC2", "max" : [1, -0], "min" : [0, -1], "name" : "TEXCOORD_0"}, {"bufferView" : 8, "byteOffset" : 20, "componentType" : 5126, "count" : 257, "type" : "VEC3", "max" : [0, 1.0000044107437134, 1.0000044107437134], "min" : [-1.0000044107437134, -1.0000044107437134, -1.0000044107437134], "name" : "NORMAL"}, {"bufferView" : 0, "byteOffset" : 3648, "componentType" : 5123, "count" : 3564, "type" : "SCALAR", "max" : [2935], "min" : [0]}, {"bufferView" : 9, "byteOffset" : 0, "componentType" : 5126, "count" : 2936, "type" : "VEC3", "max" : [99.83037567138672, 319.61041259765625, 139.1032257080078], "min" : [-100.23432922363281, -51.99302291870117, -150.36297607421875], "name" : "POSITION"}, {"bufferView" : 9, "byteOffset" : 12, "componentType" : 5126, "count" : 2936, "type" : "VEC2", "max" : [1, -0], "min" : [0, -1], "name" : "TEXCOORD_0"}, {"bufferView" : 9, "byteOffset" : 20, "componentType" : 5126, "count" : 2936, "type" : "VEC3", "max" : [1.0000044107437134, 1.0000044107437134, 1.0000044107437134], "min" : [-1.0000044107437134, -1.0000044107437134, -1.0000044107437134], "name" : "NORMAL"}, {"bufferView" : 0, "byteOffset" : 10776, "componentType" : 5123, "count" : 36, "type" : "SCALAR", "max" : [29], "min" : [0]}, {"bufferView" : 10, "byteOffset" : 0, "componentType" : 5126, "count" : 30, "type" : "VEC3", "max" : [101.95759582519531, 205.8119354248047, 23.07855224609375], "min" : [99.95759582519531, 145.8119354248047, -36.92144775390625], "name" : "POSITION"}, {"bufferView" : 10, "byteOffset" : 12, "componentType" : 5126, "count" : 30, "type" : "VEC2", "max" : [1, -0], "min" : [0, -1], "name" : "TEXCOORD_0"}, {"bufferView" : 10, "byteOffset" : 20, "componentType" : 5126, "count" : 30, "type" : "VEC3", "max" : [1.0000044107437134, 1.0000044107437134, 1.0000044107437134], "min" : [-1.0000044107437134, -1.0000044107437134, -1.0000044107437134], "name" : "NORMAL"}], "asset" : {"generator" : "Aspose.3D 22.10", "version" : "2.0"}, "buffers" : [{"uri" : "data:application/octet-stream;base64,", "byteLength" : 184460}], "bufferViews" : [{"buffer" : 0, "byteOffset" : 0, "byteLength" : 10848, "target" : 34963}, {"buffer" : 0, "byteOffset" : 10852, "byteLength" : 5184, "byteStride" : 32, "target" : 34962}, {"buffer" : 0, "byteOffset" : 16040, "byteLength" : 9408, "byteStride" : 32, "target" : 34962}, {"buffer" : 0, "byteOffset" : 25452, "byteLength" : 5184, "byteStride" : 32, "target" : 34962}, {"buffer" : 0, "byteOffset" : 30640, "byteLength" : 9408, "byteStride" : 32, "target" : 34962}, {"buffer" : 0, "byteOffset" : 40052, "byteLength" : 5184, "byteStride" : 32, "target" : 34962}, {"buffer" : 0, "byteOffset" : 45240, "byteLength" : 9408, "byteStride" : 32, "target" : 34962}, {"buffer" : 0, "byteOffset" : 54652, "byteLength" : 5184, "byteStride" : 32, "target" : 34962}, {"buffer" : 0, "byteOffset" : 59840, "byteLength" : 9408, "byteStride" : 32, "target" : 34962}, {"buffer" : 0, "byteOffset" : 69252, "byteLength" : 114048, "byteStride" : 32, "target" : 34962}, {"buffer" : 0, "byteOffset" : 183304, "byteLength" : 1152, "byteStride" : 32, "target" : 34962}], "meshes" : [{"primitives" : [{"attributes" : {"POSITION" : 1, "TEXCOORD_0" : 2, "NORMAL" : 3}, "indices" : 0, "mode" : 4}, {"attributes" : {"POSITION" : 5, "TEXCOORD_0" : 6, "NORMAL" : 7}, "indices" : 4, "mode" : 4}], "name" : ""}, {"primitives" : [{"attributes" : {"POSITION" : 9, "TEXCOORD_0" : 10, "NORMAL" : 11}, "indices" : 8, "mode" : 4}, {"attributes" : {"POSITION" : 13, "TEXCOORD_0" : 14, "NORMAL" : 15}, "indices" : 12, "mode" : 4}], "name" : ""}, {"primitives" : [{"attributes" : {"POSITION" : 17, "TEXCOORD_0" : 18, "NORMAL" : 19}, "indices" : 16, "mode" : 4}, {"attributes" : {"POSITION" : 21, "TEXCOORD_0" : 22, "NORMAL" : 23}, "indices" : 20, "mode" : 4}], "name" : ""}, {"primitives" : [{"attributes" : {"POSITION" : 25, "TEXCOORD_0" : 26, "NORMAL" : 27}, "indices" : 24, "mode" : 4}, {"attributes" : {"POSITION" : 29, "TEXCOORD_0" : 30, "NORMAL" : 31}, "indices" : 28, "mode" : 4}], "name" : ""}, {"primitives" : [{"attributes" : {"POSITION" : 33, "TEXCOORD_0" : 34, "NORMAL" : 35}, "indices" : 32, "mode" : 4}], "name" : ""}, {"primitives" : [{"attributes" : {"POSITION" : 37, "TEXCOORD_0" : 38, "NORMAL" : 39}, "indices" : 36, "mode" : 4}], "name" : ""}], "nodes" : [{"mesh" : 0, "name" : "Cilindro.2"}, {"mesh" : 1, "name" : "Cilindro.1"}, {"mesh" : 2, "name" : "Cilindro"}, {"mesh" : 3, "name" : "Cilindro.5"}, {"mesh" : 4, "name" : "Cubo"}, {"mesh" : 5, "name" : "Cubo.1"}], "scene" : 0, "scenes" : [{"nodes" : [0, 1, 2, 3, 4, 5]}]}