{"accessors" : [{"bufferView" : 0, "byteOffset" : 0, "componentType" : 5123, "count" : 36, "type" : "SCALAR", "max" : [29], "min" : [0]}, {"bufferView" : 1, "byteOffset" : 0, "componentType" : 5126, "count" : 30, "type" : "VEC3", "max" : [17.83737564086914, 159.18988037109375, 54.843265533447266], "min" : [-2.1626241207122803, 129.18988037109375, 52.843265533447266], "name" : "POSITION"}, {"bufferView" : 1, "byteOffset" : 12, "componentType" : 5126, "count" : 30, "type" : "VEC2", "max" : [1, -0], "min" : [0, -1], "name" : "TEXCOORD_0"}, {"bufferView" : 1, "byteOffset" : 20, "componentType" : 5126, "count" : 30, "type" : "VEC3", "max" : [1.0000044107437134, 1.0000044107437134, 1.0000044107437134], "min" : [-1.0000044107437134, -1.0000044107437134, -1.0000044107437134], "name" : "NORMAL"}, {"bufferView" : 0, "byteOffset" : 72, "componentType" : 5123, "count" : 162, "type" : "SCALAR", "max" : [160], "min" : [0]}, {"bufferView" : 2, "byteOffset" : 0, "componentType" : 5126, "count" : 161, "type" : "VEC3", "max" : [99.16841888427734, 22.017852783203125, 66.88330078125], "min" : [89.16841888427734, 2.017852783203125, 46.883304595947266], "name" : "POSITION"}, {"bufferView" : 2, "byteOffset" : 12, "componentType" : 5126, "count" : 161, "type" : "VEC2", "max" : [1, -0], "min" : [0, -1], "name" : "TEXCOORD_0"}, {"bufferView" : 2, "byteOffset" : 20, "componentType" : 5126, "count" : 161, "type" : "VEC3", "max" : [1.0000044107437134, 0, 0], "min" : [-1.0000044107437134, 0, 0], "name" : "NORMAL"}, {"bufferView" : 0, "byteOffset" : 396, "componentType" : 5123, "count" : 294, "type" : "SCALAR", "max" : [256], "min" : [0]}, {"bufferView" : 3, "byteOffset" : 0, "componentType" : 5126, "count" : 257, "type" : "VEC3", "max" : [99.16841888427734, 22.017852783203125, 66.88330078125], "min" : [89.16841888427734, 2.017852783203125, 46.883304595947266], "name" : "POSITION"}, {"bufferView" : 3, "byteOffset" : 12, "componentType" : 5126, "count" : 257, "type" : "VEC2", "max" : [1, -0], "min" : [0, -1], "name" : "TEXCOORD_0"}, {"bufferView" : 3, "byteOffset" : 20, "componentType" : 5126, "count" : 257, "type" : "VEC3", "max" : [0, 1.0000044107437134, 1.0000044107437134], "min" : [-1.0000044107437134, -1.0000044107437134, -1.0000044107437134], "name" : "NORMAL"}, {"bufferView" : 0, "byteOffset" : 984, "componentType" : 5123, "count" : 162, "type" : "SCALAR", "max" : [160], "min" : [0]}, {"bufferView" : 4, "byteOffset" : 0, "componentType" : 5126, "count" : 161, "type" : "VEC3", "max" : [-89.46854400634766, 22.017852783203125, 66.88330078125], "min" : [-99.46854400634766, 2.017852783203125, 46.883304595947266], "name" : "POSITION"}, {"bufferView" : 4, "byteOffset" : 12, "componentType" : 5126, "count" : 161, "type" : "VEC2", "max" : [1, -0], "min" : [0, -1], "name" : "TEXCOORD_0"}, {"bufferView" : 4, "byteOffset" : 20, "componentType" : 5126, "count" : 161, "type" : "VEC3", "max" : [1.0000044107437134, 0, 0], "min" : [-1.0000044107437134, 0, 0], "name" : "NORMAL"}, {"bufferView" : 0, "byteOffset" : 1308, "componentType" : 5123, "count" : 294, "type" : "SCALAR", "max" : [256], "min" : [0]}, {"bufferView" : 5, "byteOffset" : 0, "componentType" : 5126, "count" : 257, "type" : "VEC3", "max" : [-89.46854400634766, 22.017852783203125, 66.88330078125], "min" : [-99.46854400634766, 2.017852783203125, 46.883304595947266], "name" : "POSITION"}, {"bufferView" : 5, "byteOffset" : 12, "componentType" : 5126, "count" : 257, "type" : "VEC2", "max" : [1, -0], "min" : [0, -1], "name" : "TEXCOORD_0"}, {"bufferView" : 5, "byteOffset" : 20, "componentType" : 5126, "count" : 257, "type" : "VEC3", "max" : [0, 1.0000044107437134, 1.0000044107437134], "min" : [-1.0000044107437134, -1.0000044107437134, -1.0000044107437134], "name" : "NORMAL"}, {"bufferView" : 0, "byteOffset" : 1896, "componentType" : 5123, "count" : 162, "type" : "SCALAR", "max" : [160], "min" : [0]}, {"bufferView" : 6, "byteOffset" : 0, "componentType" : 5126, "count" : 161, "type" : "VEC3", "max" : [-89.46854400634766, 22.017852783203125, -48.068538665771484], "min" : [-99.46854400634766, 2.017852783203125, -68.06854248046875], "name" : "POSITION"}, {"bufferView" : 6, "byteOffset" : 12, "componentType" : 5126, "count" : 161, "type" : "VEC2", "max" : [1, -0], "min" : [0, -1], "name" : "TEXCOORD_0"}, {"bufferView" : 6, "byteOffset" : 20, "componentType" : 5126, "count" : 161, "type" : "VEC3", "max" : [1.0000044107437134, 0, 0], "min" : [-1.0000044107437134, 0, 0], "name" : "NORMAL"}, {"bufferView" : 0, "byteOffset" : 2220, "componentType" : 5123, "count" : 294, "type" : "SCALAR", "max" : [256], "min" : [0]}, {"bufferView" : 7, "byteOffset" : 0, "componentType" : 5126, "count" : 257, "type" : "VEC3", "max" : [-89.46854400634766, 22.017852783203125, -48.068538665771484], "min" : [-99.46854400634766, 2.017852783203125, -68.06854248046875], "name" : "POSITION"}, {"bufferView" : 7, "byteOffset" : 12, "componentType" : 5126, "count" : 257, "type" : "VEC2", "max" : [1, -0], "min" : [0, -1], "name" : "TEXCOORD_0"}, {"bufferView" : 7, "byteOffset" : 20, "componentType" : 5126, "count" : 257, "type" : "VEC3", "max" : [0, 1.0000044107437134, 1.0000044107437134], "min" : [-1.0000044107437134, -1.0000044107437134, -1.0000044107437134], "name" : "NORMAL"}, {"bufferView" : 0, "byteOffset" : 2808, "componentType" : 5123, "count" : 1884, "type" : "SCALAR", "max" : [1589], "min" : [0]}, {"bufferView" : 8, "byteOffset" : 0, "componentType" : 5126, "count" : 1590, "type" : "VEC3", "max" : [100.01830291748047, 198.5257110595703, 60.7413444519043], "min" : [-121.4522705078125, 19.84545135498047, -79.99369049072266], "name" : "POSITION"}, {"bufferView" : 8, "byteOffset" : 12, "componentType" : 5126, "count" : 1590, "type" : "VEC2", "max" : [1, -0], "min" : [0, -1], "name" : "TEXCOORD_0"}, {"bufferView" : 8, "byteOffset" : 20, "componentType" : 5126, "count" : 1590, "type" : "VEC3", "max" : [1.0000044107437134, 1, 1.0000044107437134], "min" : [-1.0000044107437134, -1.0000044107437134, -1.0000044107437134], "name" : "NORMAL"}, {"bufferView" : 0, "byteOffset" : 6576, "componentType" : 5123, "count" : 84, "type" : "SCALAR", "max" : [69], "min" : [0]}, {"bufferView" : 9, "byteOffset" : 0, "componentType" : 5126, "count" : 70, "type" : "VEC3", "max" : [100.38725280761719, 201.5812530517578, 49.314613342285156], "min" : [-99.82209777832031, 167.38461303710938, -44.65464782714844], "name" : "POSITION"}, {"bufferView" : 9, "byteOffset" : 12, "componentType" : 5126, "count" : 70, "type" : "VEC2", "max" : [0.6944444179534912, -0], "min" : [0.3055555522441864, -1], "name" : "TEXCOORD_0"}, {"bufferView" : 9, "byteOffset" : 20, "componentType" : 5126, "count" : 70, "type" : "VEC3", "max" : [0.006491727661341429, 0.9999833106994629, 0.9063116312026978], "min" : [0.002743520773947239, 0.4226112365722656, -0.9063118100166321], "name" : "NORMAL"}, {"bufferView" : 0, "byteOffset" : 6744, "componentType" : 5123, "count" : 162, "type" : "SCALAR", "max" : [160], "min" : [0]}, {"bufferView" : 10, "byteOffset" : 0, "componentType" : 5126, "count" : 161, "type" : "VEC3", "max" : [100.42293548583984, 22.017852783203125, -48.068538665771484], "min" : [90.42293548583984, 2.017852783203125, -68.06854248046875], "name" : "POSITION"}, {"bufferView" : 10, "byteOffset" : 12, "componentType" : 5126, "count" : 161, "type" : "VEC2", "max" : [1, -0], "min" : [0, -1], "name" : "TEXCOORD_0"}, {"bufferView" : 10, "byteOffset" : 20, "componentType" : 5126, "count" : 161, "type" : "VEC3", "max" : [1.0000044107437134, 0, 0], "min" : [-1.0000044107437134, 0, 0], "name" : "NORMAL"}, {"bufferView" : 0, "byteOffset" : 7068, "componentType" : 5123, "count" : 294, "type" : "SCALAR", "max" : [256], "min" : [0]}, {"bufferView" : 11, "byteOffset" : 0, "componentType" : 5126, "count" : 257, "type" : "VEC3", "max" : [100.42293548583984, 22.017852783203125, -48.068538665771484], "min" : [90.42293548583984, 2.017852783203125, -68.06854248046875], "name" : "POSITION"}, {"bufferView" : 11, "byteOffset" : 12, "componentType" : 5126, "count" : 257, "type" : "VEC2", "max" : [1, -0], "min" : [0, -1], "name" : "TEXCOORD_0"}, {"bufferView" : 11, "byteOffset" : 20, "componentType" : 5126, "count" : 257, "type" : "VEC3", "max" : [0, 1.0000044107437134, 1.0000044107437134], "min" : [-1.0000044107437134, -1.0000044107437134, -1.0000044107437134], "name" : "NORMAL"}, {"bufferView" : 0, "byteOffset" : 7656, "componentType" : 5123, "count" : 432, "type" : "SCALAR", "max" : [395], "min" : [0]}, {"bufferView" : 12, "byteOffset" : 0, "componentType" : 5126, "count" : 396, "type" : "VEC3", "max" : [-81.82489013671875, 130.6481170654297, -73.96825408935547], "min" : [-103.2442855834961, 122.29341125488281, -90.3662109375], "name" : "POSITION"}, {"bufferView" : 12, "byteOffset" : 12, "componentType" : 5126, "count" : 396, "type" : "VEC2", "max" : [1, -0], "min" : [0, -1], "name" : "TEXCOORD_0"}, {"bufferView" : 12, "byteOffset" : 20, "componentType" : 5126, "count" : 396, "type" : "VEC3", "max" : [0.8846219778060913, 0.9998016953468323, 0.8847991824150085], "min" : [-0.8846212029457092, -0.9998016953468323, -0.8847991824150085], "name" : "NORMAL"}], "asset" : {"generator" : "Aspose.3D 22.10", "version" : "2.0"}, "buffers" : [{"uri" : "data:application/octet-stream;base64,", "byteLength" : 144892}], "bufferViews" : [{"buffer" : 0, "byteOffset" : 0, "byteLength" : 8520, "target" : 34963}, {"buffer" : 0, "byteOffset" : 8524, "byteLength" : 1152, "byteStride" : 32, "target" : 34962}, {"buffer" : 0, "byteOffset" : 9680, "byteLength" : 5184, "byteStride" : 32, "target" : 34962}, {"buffer" : 0, "byteOffset" : 14868, "byteLength" : 9408, "byteStride" : 32, "target" : 34962}, {"buffer" : 0, "byteOffset" : 24280, "byteLength" : 5184, "byteStride" : 32, "target" : 34962}, {"buffer" : 0, "byteOffset" : 29468, "byteLength" : 9408, "byteStride" : 32, "target" : 34962}, {"buffer" : 0, "byteOffset" : 38880, "byteLength" : 5184, "byteStride" : 32, "target" : 34962}, {"buffer" : 0, "byteOffset" : 44068, "byteLength" : 9408, "byteStride" : 32, "target" : 34962}, {"buffer" : 0, "byteOffset" : 53480, "byteLength" : 60288, "byteStride" : 32, "target" : 34962}, {"buffer" : 0, "byteOffset" : 113772, "byteLength" : 2688, "byteStride" : 32, "target" : 34962}, {"buffer" : 0, "byteOffset" : 116464, "byteLength" : 5184, "byteStride" : 32, "target" : 34962}, {"buffer" : 0, "byteOffset" : 121652, "byteLength" : 9408, "byteStride" : 32, "target" : 34962}, {"buffer" : 0, "byteOffset" : 131064, "byteLength" : 13824, "byteStride" : 32, "target" : 34962}], "meshes" : [{"primitives" : [{"attributes" : {"POSITION" : 1, "TEXCOORD_0" : 2, "NORMAL" : 3}, "indices" : 0, "mode" : 4}], "name" : ""}, {"primitives" : [{"attributes" : {"POSITION" : 5, "TEXCOORD_0" : 6, "NORMAL" : 7}, "indices" : 4, "mode" : 4}, {"attributes" : {"POSITION" : 9, "TEXCOORD_0" : 10, "NORMAL" : 11}, "indices" : 8, "mode" : 4}], "name" : ""}, {"primitives" : [{"attributes" : {"POSITION" : 13, "TEXCOORD_0" : 14, "NORMAL" : 15}, "indices" : 12, "mode" : 4}, {"attributes" : {"POSITION" : 17, "TEXCOORD_0" : 18, "NORMAL" : 19}, "indices" : 16, "mode" : 4}], "name" : ""}, {"primitives" : [{"attributes" : {"POSITION" : 21, "TEXCOORD_0" : 22, "NORMAL" : 23}, "indices" : 20, "mode" : 4}, {"attributes" : {"POSITION" : 25, "TEXCOORD_0" : 26, "NORMAL" : 27}, "indices" : 24, "mode" : 4}], "name" : ""}, {"primitives" : [{"attributes" : {"POSITION" : 29, "TEXCOORD_0" : 30, "NORMAL" : 31}, "indices" : 28, "mode" : 4}], "name" : ""}, {"primitives" : [{"attributes" : {"POSITION" : 33, "TEXCOORD_0" : 34, "NORMAL" : 35}, "indices" : 32, "mode" : 4}], "name" : ""}, {"primitives" : [{"attributes" : {"POSITION" : 37, "TEXCOORD_0" : 38, "NORMAL" : 39}, "indices" : 36, "mode" : 4}, {"attributes" : {"POSITION" : 41, "TEXCOORD_0" : 42, "NORMAL" : 43}, "indices" : 40, "mode" : 4}], "name" : ""}, {"primitives" : [{"attributes" : {"POSITION" : 45, "TEXCOORD_0" : 46, "NORMAL" : 47}, "indices" : 44, "mode" : 4}], "name" : ""}], "nodes" : [{"mesh" : 0, "name" : "Cubo"}, {"mesh" : 1, "name" : "Cilindro.5"}, {"mesh" : 2, "name" : "Cilindro.4"}, {"mesh" : 3, "name" : "Cilindro.3"}, {"mesh" : 4, "name" : "Cilindro"}, {"mesh" : 5, "name" : "Cilindro.1"}, {"mesh" : 6, "name" : "Cilindro.2"}, {"mesh" : 7, "name" : "Cilindro.6"}], "scene" : 0, "scenes" : [{"nodes" : [0, 1, 2, 3, 4, 5, 6, 7]}]}